<?xml version="1.0" encoding="utf-8"?>
<!-- Generator: Adobe Illustrator 19.1.0, SVG Export Plug-In . SVG Version: 6.00 Build 0)  -->
<svg version="1.1" id="Layer_1" xmlns="http://www.w3.org/2000/svg" xmlns:xlink="http://www.w3.org/1999/xlink" x="0px" y="0px"
	 viewBox="0 0 64.2 100" style="enable-background:new 0 0 64.2 100;" xml:space="preserve">
<style type="text/css">
	.st0{fill-rule:evenodd;clip-rule:evenodd;fill:#057BB4;}
	.st1{fill-rule:evenodd;clip-rule:evenodd;fill:#3E5B96;}
	.st2{fill-rule:evenodd;clip-rule:evenodd;fill:#3E5A97;}
	.st3{fill-rule:evenodd;clip-rule:evenodd;fill:#3E5A96;}
	.st4{fill-rule:evenodd;clip-rule:evenodd;fill:#C7232B;}
	.st5{fill-rule:evenodd;clip-rule:evenodd;fill:#C6242B;}
	.st6{fill-rule:evenodd;clip-rule:evenodd;fill:#CF4B39;}
	.st7{fill-rule:evenodd;clip-rule:evenodd;fill:#B52329;}
	.st8{fill-rule:evenodd;clip-rule:evenodd;fill:#C5252C;}
	.st9{fill-rule:evenodd;clip-rule:evenodd;fill:#2BA8DC;}
	.st10{fill-rule:evenodd;clip-rule:evenodd;fill:#2CA7DB;}
	.st11{fill-rule:evenodd;clip-rule:evenodd;fill:#B4252B;}
	.st12{fill-rule:evenodd;clip-rule:evenodd;fill:#405C94;}
	.st13{fill-rule:evenodd;clip-rule:evenodd;fill:#405C95;}
	.st14{fill-rule:evenodd;clip-rule:evenodd;fill:#35C2E5;}
	.st15{fill-rule:evenodd;clip-rule:evenodd;fill:#35526C;}
	.st16{fill-rule:evenodd;clip-rule:evenodd;fill:#10B6D5;}
	.st17{fill-rule:evenodd;clip-rule:evenodd;fill:#C2DCEB;}
	.st18{fill-rule:evenodd;clip-rule:evenodd;fill:#12B6D4;}
	.st19{fill-rule:evenodd;clip-rule:evenodd;fill:#11B6D4;}
	.st20{fill-rule:evenodd;clip-rule:evenodd;fill:#30BBE1;}
	.st21{fill-rule:evenodd;clip-rule:evenodd;fill:#5A6A8B;}
	.st22{fill-rule:evenodd;clip-rule:evenodd;fill:#297A9F;}
</style>
<g>
	<path class="st0" d="M28.8,6.1c0,2.8-1.7,5-4.2,5.8c-0.7,0.2-0.9,0.5-0.7,1.2c0.3,1,0.8,1.9,1.2,2.9c0.2,0.4,0.5,0.8,0.7,1.2
		c0,0.1,0,0.2,0,0.3c-0.1,0-0.3,0-0.4,0c-2.4-1.5-4.5-3.3-5.8-5.9c-0.1-0.2-0.3-0.5-0.5-0.6c-2-1.7-2.7-4.5-1.7-6.8
		c1-2.4,3.6-3.9,6-3.6c2.8,0.4,4.9,2.4,5.2,5.1C28.9,5.8,28.8,6.1,28.8,6.1z"/>
	<path class="st0" d="M40.3,16.2c-0.3,0.2-0.5,0.4-0.8,0.5c-0.6,0.4-1.2,0.8-1.9,1.1c0.5-0.8,1.1-1.6,1.6-2.4
		c0.4-0.7,0.7-1.5,0.9-2.3c0.2-0.7-0.1-1-0.7-1.2c-2.7-0.8-4.5-3.5-4.1-6.2c0.4-3,2.7-5.1,5.7-5.2c2.8-0.1,5.4,1.9,5.9,4.8
		c0.4,2.1-0.2,3.9-1.8,5.4c-0.4,0.4-0.7,0.8-1,1.3c-0.3,0.4-0.5,0.9-0.8,1.3c-0.1,0.1-0.1,0.2-0.2,0.3l0,0c-0.1,0.1-0.2,0.1-0.3,0.2
		c-0.8,0.7-1.5,1.4-2.3,2.1C40.3,15.9,40.3,16.1,40.3,16.2z"/>
	<path class="st1" d="M53.2,85.2c-2.5,0-4.8-2.2-4.6-5c0.2-2.9,2.5-4.9,5.2-4.7c2.6,0.2,4.7,2.5,4.5,5.1
		C58.1,83.3,55.9,85.4,53.2,85.2z"/>
	<path class="st1" d="M42.7,82.8c2.6,0,4.8,2.2,4.9,4.9c0,2.6-2.1,4.8-4.8,4.9c-2.6,0.1-4.9-2.2-4.9-4.8
		C37.8,85.1,40,82.8,42.7,82.8z"/>
	<path class="st2" d="M0.9,66.1c0-2.6,2.2-4.7,4.8-4.7c2.7,0,4.9,2.3,4.9,4.9c-0.1,2.7-2.3,4.9-4.9,4.8C2.9,71,0.9,68.9,0.9,66.1z"
		/>
	<path class="st2" d="M10.5,85.2c-2.7,0-4.8-2.2-4.8-4.9c0-2.6,2.2-4.8,4.9-4.8c2.7,0,4.9,2.2,4.8,4.9
		C15.4,83.1,13.2,85.3,10.5,85.2z"/>
	<path class="st2" d="M30.9,99.3c-0.1,0-0.1,0-0.2,0c-0.2-0.1-0.4-0.2-0.7-0.2c-2-0.8-3.1-3-2.8-5.3c0.3-2.1,2.2-3.8,4.4-4
		c2.5-0.2,4.6,1.4,5.1,3.8c0.5,2.4-0.8,4.8-3.1,5.6c-0.1,0-0.3,0.1-0.4,0.1C32.5,99.3,31.7,99.3,30.9,99.3z"/>
	<path class="st3" d="M20.3,92.4c-1.8-0.3-3.4-2-3.7-3.9c-0.3-2.8,1.4-5.1,4.2-5.6c2.3-0.3,4.6,1.2,5.3,3.5c0.6,2.4-0.6,4.8-2.8,5.7
		c-0.8,0.1-1.6,0.2-2.4,0.2C20.7,92.4,20.5,92.4,20.3,92.4z"/>
	<path class="st1" d="M54.6,63.1c1.3-1.5,3-2.1,5-1.5c2.1,0.6,3.2,2,3.5,4.2c0.3,1.9-0.8,3.8-2.5,4.8c-1.7,0.9-3.9,0.8-5.3-0.4
		c-0.1-0.1-0.2-0.1-0.3-0.2l0,0l0,0c-0.2-0.2-0.3-0.3-0.5-0.5l0,0l0,0c0-0.2,0-0.3-0.1-0.5c-0.2-0.5-0.5-1-0.7-1.4
		c-0.5-1.1-0.1-2.2,0.3-3.2c0.1-0.2,0.1-0.5,0.2-0.7l0,0C54.5,63.3,54.6,63.2,54.6,63.1z"/>
	<path class="st4" d="M8.5,56.9c0-2.3,1.8-4.1,4.1-4.1c2.4,0,4.2,1.7,4.2,4.1c0,2.3-1.8,4.2-4.1,4.2C10.3,61.1,8.5,59.2,8.5,56.9z"
		/>
	<path class="st4" d="M47.1,56.8c0.1-2.4,1.9-4.1,4.4-4.1c2.2,0.1,3.9,2,3.9,4.2c-0.1,2.3-2,4.2-4.2,4.1
		C48.9,61,47.1,59.1,47.1,56.8z"/>
	<path class="st5" d="M15.3,67.2c2.1,0,3.8,1.7,3.8,3.8c0,2.1-1.7,3.7-3.7,3.8c-2.1,0-3.8-1.7-3.8-3.8
		C11.6,68.8,13.2,67.2,15.3,67.2z"/>
	<path class="st5" d="M48.6,67.2c2.1,0,3.7,1.7,3.8,3.8c0,2.1-1.7,3.8-3.8,3.8c-2.1,0-3.8-1.7-3.8-3.8
		C44.8,68.8,46.5,67.2,48.6,67.2z"/>
	<path class="st5" d="M40.2,72.9c2.1,0,3.8,1.7,3.8,3.7c0,2.1-1.7,3.8-3.8,3.8c-2.1,0-3.8-1.7-3.8-3.8
		C36.4,74.5,38.1,72.9,40.2,72.9z"/>
	<path class="st5" d="M23.8,72.9c2.1,0,3.7,1.7,3.7,3.8c0,2.1-1.7,3.7-3.8,3.7c-2,0-3.7-1.7-3.7-3.8C19.9,74.5,21.7,72.8,23.8,72.9z
		"/>
	<path class="st1" d="M58.3,53.4c-1.8,0-3.3-1.5-3.2-3.3c0-1.8,1.5-3.3,3.4-3.2c1.8,0,3.2,1.5,3.2,3.3C61.6,52,60.1,53.4,58.3,53.4z
		"/>
	<path class="st1" d="M5.7,53.4c-1.8,0-3.3-1.5-3.3-3.3c0-1.8,1.5-3.2,3.3-3.3c1.9,0,3.3,1.5,3.3,3.3C9,52,7.5,53.4,5.7,53.4z"/>
	<path class="st6" d="M28.1,67.6c0,1.8-1.5,3.3-3.3,3.3c-1.8,0-3.3-1.5-3.3-3.3c0-1.7,1.5-3.2,3.3-3.2
		C26.6,64.3,28.1,65.8,28.1,67.6z"/>
	<path class="st6" d="M39.1,70.9c-1.8,0-3.3-1.5-3.3-3.3c0-1.8,1.5-3.2,3.2-3.3c1.8,0,3.3,1.5,3.3,3.3
		C42.3,69.4,40.9,70.9,39.1,70.9z"/>
	<path class="st7" d="M49.5,42.7c1.8,0,3.2,1.4,3.1,3.2c0,1.8-1.5,3.2-3.3,3.2c-1.7,0-3.1-1.5-3.1-3.2
		C46.3,44.1,47.7,42.7,49.5,42.7z"/>
	<path class="st7" d="M14.5,42.7c1.8,0,3.2,1.5,3.2,3.2c0,1.8-1.5,3.2-3.3,3.2c-1.8,0-3.2-1.4-3.2-3.2
		C11.2,44.1,12.7,42.7,14.5,42.7z"/>
	<path class="st8" d="M35.1,82.9c0,1.7-1.4,3-3,3c-1.7,0-3-1.3-3-3c0-1.7,1.3-3,3-3C33.6,79.8,35,81.2,35.1,82.9z"/>
	<path class="st6" d="M32,24.9c-1.7,0-3-1.3-3-3c0-1.7,1.3-3,3-3c1.7,0,3,1.3,3,3C35,23.6,33.7,24.9,32,24.9z"/>
	<path class="st9" d="M38.1,32.3c-1.7,0-3-1.4-3-3c0-1.7,1.4-3,3.1-3c1.7,0,3,1.4,3,3C41.1,31,39.8,32.3,38.1,32.3z"/>
	<path class="st9" d="M24.8,32.3c-1.7,0-3-1.4-3-3.1c0-1.7,1.4-3,3.1-3c1.7,0,3,1.4,3,3.1C27.8,31,26.4,32.4,24.8,32.3z"/>
	<path class="st9" d="M32,33.3c1.7,0,3,1.3,3,3c0,1.6-1.4,3.1-3,3c-1.7,0-3-1.3-3-3C29,34.7,30.3,33.3,32,33.3z"/>
	<path class="st10" d="M32,75.1c-1.3,0-2.3-1-2.3-2.3c0-1.4,1.1-2.4,2.4-2.4c1.3,0,2.3,1.1,2.3,2.4C34.3,74.2,33.3,75.2,32,75.1z"/>
	<path class="st11" d="M45.5,37.2c0,1.3-1,2.2-2.3,2.2c-1.2,0-2.2-1.1-2.2-2.3c0-1.2,1-2.2,2.3-2.1C44.5,34.9,45.5,35.9,45.5,37.2z"
		/>
	<path class="st12" d="M26.2,44.4c-1.2,0-2.2-1.1-2.1-2.3c0-1.2,1.1-2.2,2.3-2.1c1.2,0,2.2,1.1,2.2,2.3
		C28.4,43.5,27.4,44.4,26.2,44.4z"/>
	<path class="st11" d="M18.4,37.2c0-1.3,1-2.2,2.2-2.2c1.3,0,2.2,1,2.2,2.2c0,1.2-1,2.2-2.2,2.2C19.4,39.4,18.4,38.4,18.4,37.2z"/>
	<path class="st13" d="M45.5,21.9c0,1.3-1,2.2-2.2,2.2c-1.2,0-2.2-1-2.2-2.3c0-1.3,1-2.2,2.3-2.2C44.5,19.7,45.5,20.7,45.5,21.9z"/>
	<path class="st13" d="M20.7,19.7c1.3,0,2.2,1,2.2,2.3c0,1.2-1,2.2-2.2,2.2c-1.2,0-2.2-1-2.2-2.3C18.4,20.6,19.4,19.7,20.7,19.7z"/>
	<path class="st12" d="M37.6,44.4c-1.2,0-2.2-1-2.2-2.3c0-1.2,1-2.2,2.2-2.2c1.2,0,2.2,1,2.2,2.2C39.9,43.4,38.9,44.4,37.6,44.4z"/>
	<path class="st13" d="M17.7,31.7c-1.3,0-2.2-1-2.2-2.3c0-1.2,1-2.2,2.2-2.2c1.3,0,2.2,1,2.2,2.3C20,30.8,19,31.7,17.7,31.7z"/>
	<path class="st13" d="M48.3,29.5c0,1.4-0.9,2.2-2.6,2.2c-0.9,0-1.8-1.1-1.8-2.2c0-1.2,1-2.3,2.2-2.3C47.4,27.3,48.3,28.3,48.3,29.5
		z"/>
	<path class="st14" d="M19.4,51.8c0-1.2,1-2.1,2.2-2.1c1.2,0,2.2,1,2.1,2.2c0,1.3-1,2.2-2.3,2.2C20.3,54,19.4,53.1,19.4,51.8z"/>
	<path class="st14" d="M44.5,51.9c0,1.3-0.9,2.2-2.2,2.2c-1.2,0-2.1-1-2.1-2.2c0-1.2,1-2.2,2.2-2.2C43.5,49.7,44.5,50.7,44.5,51.9z"
		/>
	<path class="st15" d="M22.4,62.1c-1.2,0-2.2-1-2.2-2.2c0-1.2,1-2.2,2.2-2.2c1.2,0,2.2,1,2.2,2.2C24.5,61.2,23.6,62.1,22.4,62.1z"/>
	<path class="st15" d="M41.5,62.1c-1.2,0-2.2-0.9-2.2-2.1c0-1.2,1-2.2,2.2-2.2c1.2,0,2.2,1,2.2,2.2C43.7,61.2,42.8,62.1,41.5,62.1z"
		/>
	<path class="st16" d="M55.8,44.4c-1-0.1-1.7-0.9-1.7-1.9C54.2,41.7,55,41,56,41c0.9,0,1.7,0.9,1.6,1.8
		C57.5,43.7,56.7,44.5,55.8,44.4z"/>
	<path class="st16" d="M9.7,42.7c0,1-0.8,1.7-1.7,1.7c-0.9,0-1.7-0.8-1.7-1.8C6.3,41.8,7.1,41,8,41C9,41,9.8,41.8,9.7,42.7z"/>
	<path class="st16" d="M58.9,58.9c-1,0-1.7-0.7-1.7-1.7c0-1,0.8-1.7,1.7-1.7c0.9,0,1.7,0.8,1.7,1.7C60.6,58.1,59.8,58.9,58.9,58.9z"
		/>
	<path class="st16" d="M4.8,58.7c-1,0-1.7-0.8-1.7-1.7c0-0.9,0.8-1.7,1.8-1.7c0.9,0,1.7,0.8,1.7,1.8C6.5,58,5.7,58.7,4.8,58.7z"/>
	<path class="st12" d="M33.7,14.7c0,1-0.8,1.8-1.7,1.7c-0.9,0-1.7-0.8-1.7-1.7c0-1,0.7-1.7,1.7-1.7C33,13,33.7,13.7,33.7,14.7z"/>
	<path class="st17" d="M28.2,54.3c1.1-0.1,1.7,0.7,1.7,1.6c0,0.9-0.8,1.7-1.7,1.7c-0.9,0-1.8-0.8-1.7-1.7C26.6,55,27,54.3,28.2,54.3
		z"/>
	<path class="st17" d="M35.7,54.3c1.1,0,1.7,0.6,1.7,1.7c0.1,0.8-0.8,1.7-1.6,1.7c-1,0-1.8-0.7-1.8-1.7C33.9,55,34.7,54.3,35.7,54.3
		z"/>
	<path class="st18" d="M15.7,39c0,0.9-0.6,1.5-1.5,1.5c-0.8,0-1.5-0.7-1.5-1.5c0-0.8,0.7-1.5,1.5-1.5C15.1,37.6,15.7,38.2,15.7,39z"
		/>
	<path class="st19" d="M42.3,98.6c-0.8,0-1.5-0.6-1.5-1.5c0-0.8,0.7-1.5,1.5-1.5c0.9,0,1.5,0.7,1.5,1.5
		C43.8,97.9,43.1,98.6,42.3,98.6z"/>
	<path class="st16" d="M51.1,90.6c-0.8,0-1.5-0.7-1.5-1.5c0-0.8,0.7-1.5,1.5-1.5c0.8,0,1.5,0.7,1.5,1.5C52.6,90,51.9,90.6,51.1,90.6
		z"/>
	<path class="st19" d="M21.6,98.6c-0.8,0-1.5-0.7-1.5-1.5c0-0.9,0.6-1.5,1.5-1.5c0.8,0,1.5,0.6,1.5,1.5
		C23.1,97.9,22.4,98.6,21.6,98.6z"/>
	<path class="st20" d="M32,59.6c0.8,0,1.5,0.7,1.5,1.5c0,0.8-0.7,1.5-1.5,1.5c-0.8,0-1.5-0.7-1.5-1.5C30.5,60.2,31.2,59.6,32,59.6z"
		/>
	<path class="st20" d="M30.5,50.6c0-0.9,0.7-1.5,1.5-1.4c0.8,0,1.5,0.8,1.4,1.6c0,0.8-0.7,1.5-1.6,1.4
		C31.1,52.1,30.5,51.5,30.5,50.6z"/>
	<path class="st20" d="M30.6,44.2c0-0.9,0.6-1.5,1.4-1.5c0.9,0,1.5,0.6,1.5,1.4c0,0.8-0.7,1.5-1.5,1.5
		C31.2,45.7,30.6,45.1,30.6,44.2z"/>
	<path class="st18" d="M58.2,74.7c0-0.8,0.6-1.4,1.5-1.4c0.8,0,1.4,0.6,1.5,1.5c0,0.8-0.7,1.5-1.5,1.5
		C58.9,76.2,58.2,75.5,58.2,74.7z"/>
	<path class="st19" d="M12.8,90.6c-0.8,0-1.5-0.7-1.5-1.5c0-0.8,0.7-1.5,1.5-1.5c0.8,0,1.5,0.7,1.5,1.5C14.3,90,13.6,90.7,12.8,90.6
		z"/>
	<path class="st18" d="M4.2,73.2c0.9,0,1.5,0.6,1.5,1.5c0,0.8-0.7,1.5-1.5,1.5c-0.8,0-1.5-0.7-1.5-1.5C2.7,73.8,3.3,73.2,4.2,73.2z"
		/>
	<path class="st18" d="M48.4,37.9c0.8,0,1.5,0.7,1.5,1.5c0,0.8-0.8,1.5-1.6,1.4c-0.8,0-1.4-0.8-1.4-1.6
		C46.9,38.5,47.6,37.8,48.4,37.9z"/>
	<path class="st21" d="M54.4,63.4c-0.1,0.2-0.1,0.5-0.2,0.7c-0.4,1-0.8,2.1-0.3,3.2c0.2,0.5,0.5,1,0.7,1.4c0.1,0.1,0,0.3,0.1,0.5
		C53.2,67.8,53,65.1,54.4,63.4z"/>
	<path class="st22" d="M40.3,16.2c0-0.1,0-0.3,0.1-0.4c0.8-0.7,1.5-1.4,2.3-2.1c0.1-0.1,0.2-0.1,0.3-0.2
		C42.1,14.4,41.2,15.3,40.3,16.2z"/>
	<path class="st21" d="M20.3,92.4c0.2,0,0.4,0,0.6,0c0.8-0.1,1.6-0.2,2.4-0.2C22.3,92.6,21.3,92.7,20.3,92.4z"/>
	<path class="st21" d="M30.9,99.3c0.8,0,1.6,0,2.4,0C32.5,99.6,31.7,99.6,30.9,99.3z"/>
	<path class="st21" d="M54.6,69.3c0.2,0.2,0.3,0.3,0.5,0.5C54.9,69.7,54.8,69.5,54.6,69.3z"/>
	<path class="st21" d="M30,99.1c0.2,0.1,0.4,0.2,0.7,0.2C30.5,99.2,30.3,99.2,30,99.1z"/>
	<path class="st21" d="M54.6,63.1c-0.1,0.1-0.2,0.2-0.3,0.4C54.5,63.3,54.6,63.2,54.6,63.1z"/>
	<path class="st21" d="M55.1,69.8c0.1,0.1,0.2,0.1,0.3,0.2C55.3,70,55.2,69.9,55.1,69.8z"/>
	<path class="st22" d="M43,13.5c0.1-0.1,0.1-0.2,0.2-0.3C43.1,13.3,43.1,13.4,43,13.5z"/>
</g>
</svg>
